<svg width="43.000000" height="43.000000" viewBox="0 0 43 43" fill="none" xmlns="http://www.w3.org/2000/svg" xmlns:xlink="http://www.w3.org/1999/xlink">
	<desc>
			Created with Pixso.
	</desc>
	<defs/>
	<path id="path" d="M21.21 0.21C20.61 0.71 20.18 1.35 20.06 1.95C19.99 2.32 19.99 2.42 20.11 2.77C20.22 3.1 20.31 3.22 20.64 3.49L21.04 3.82L21.04 4.26L21.04 4.7L20.69 4.67C20.09 4.6 19.8 4.51 19.47 4.28L19.15 4.05L19.14 3.37C19.14 2.78 19.12 2.66 18.96 2.4C18.68 1.93 17.99 1.42 17.25 1.14C16.4 0.8 16.2 0.77 16.08 0.97C15.79 1.48 15.77 2.79 16.04 3.27C16.36 3.84 17.32 4.45 17.88 4.45C18.02 4.45 18.21 4.55 18.5 4.77C19.28 5.36 20.18 5.61 21.56 5.6C22.92 5.6 23.86 5.35 24.56 4.8C24.79 4.63 25.03 4.5 25.19 4.48C25.98 4.34 26.68 3.9 27.02 3.3C27.22 2.96 27.23 2.89 27.23 2.25C27.22 1.44 27.03 0.87 26.78 0.84C26.7 0.83 26.31 0.95 25.93 1.1C25.12 1.43 24.44 1.92 24.15 2.4C23.99 2.66 23.97 2.78 23.97 3.33C23.97 3.95 23.96 3.98 23.75 4.19C23.49 4.45 23.06 4.61 22.5 4.66L22.07 4.7L22.07 4.23L22.07 3.76L22.38 3.53C22.82 3.18 22.99 2.89 23.02 2.36C23.07 1.8 22.93 1.4 22.53 0.9C22.22 0.51 21.65 0 21.55 0C21.52 0 21.36 0.1 21.21 0.21ZM21.7 2.35C21.7 2.55 21.67 2.79 21.62 2.89C21.56 3.04 21.54 3.04 21.47 2.95C21.34 2.76 21.31 2.22 21.41 1.98C21.5 1.77 21.51 1.76 21.6 1.87C21.66 1.93 21.7 2.13 21.7 2.35ZM17.7 2.76C17.99 3.1 18.16 3.43 18.1 3.55C18 3.76 17.32 2.98 17.32 2.64C17.32 2.42 17.44 2.45 17.7 2.76ZM25.79 2.62C25.78 2.92 25.2 3.66 25.04 3.59C24.91 3.52 25.14 3.03 25.47 2.68C25.67 2.45 25.79 2.44 25.79 2.62Z" fill="#FFFFFF" fill-opacity="1.000000" fill-rule="nonzero"/>
	<path id="path" d="M20.06 1.95C19.99 2.32 19.99 2.42 20.11 2.77C20.22 3.1 20.31 3.22 20.64 3.49L21.04 3.82L21.04 4.26L21.04 4.7L20.69 4.67C20.09 4.6 19.8 4.51 19.47 4.28L19.15 4.05L19.14 3.37C19.14 2.78 19.12 2.66 18.96 2.4C18.68 1.93 17.99 1.42 17.25 1.14C16.4 0.8 16.2 0.77 16.08 0.97C15.79 1.48 15.77 2.79 16.04 3.27C16.36 3.84 17.32 4.45 17.88 4.45C18.02 4.45 18.21 4.55 18.5 4.77C19.28 5.36 20.18 5.61 21.56 5.6C22.92 5.6 23.86 5.35 24.56 4.8C24.79 4.63 25.03 4.5 25.19 4.48C25.98 4.34 26.68 3.9 27.02 3.3C27.22 2.96 27.23 2.89 27.23 2.25C27.22 1.44 27.03 0.87 26.78 0.84C26.7 0.83 26.31 0.95 25.93 1.1C25.12 1.43 24.44 1.92 24.15 2.4C23.99 2.66 23.97 2.78 23.97 3.33C23.97 3.95 23.96 3.98 23.75 4.19C23.49 4.45 23.06 4.61 22.5 4.66L22.07 4.7L22.07 4.23L22.07 3.76L22.38 3.53C22.82 3.18 22.99 2.89 23.02 2.36C23.07 1.8 22.93 1.4 22.53 0.9C22.22 0.51 21.65 0 21.55 0C21.52 0 21.36 0.1 21.21 0.21C20.61 0.71 20.18 1.35 20.06 1.95ZM21.62 2.89C21.56 3.04 21.54 3.04 21.47 2.95C21.34 2.76 21.31 2.22 21.41 1.98C21.5 1.77 21.51 1.76 21.6 1.87C21.66 1.93 21.7 2.13 21.7 2.35C21.7 2.55 21.67 2.79 21.62 2.89ZM18.1 3.55C18 3.76 17.32 2.98 17.32 2.64C17.32 2.42 17.44 2.45 17.7 2.76C17.99 3.1 18.16 3.43 18.1 3.55ZM25.04 3.59C24.91 3.52 25.14 3.03 25.47 2.68C25.67 2.45 25.79 2.44 25.79 2.62C25.78 2.92 25.2 3.66 25.04 3.59Z" stroke="#000000" stroke-opacity="0" stroke-width="0.133333"/>
	<path id="path" d="M12.1 2.09C12.09 2.13 12.03 2.26 11.98 2.37C11.83 2.76 11.8 3.84 11.94 4.27C12.16 4.95 12.71 5.54 13.46 5.9C13.69 6.01 14.33 6.46 14.88 6.89C15.73 7.56 15.93 7.76 16.2 8.17C16.65 8.87 17.01 9.12 18.1 9.45C19.05 9.75 19.48 9.98 19.97 10.45C20.55 11 20.96 11.99 20.96 12.8L20.96 13.14L20.77 12.9C20.66 12.78 20.42 12.56 20.23 12.42C19.48 11.88 18.71 11.63 17.76 11.63C16.87 11.63 16.14 11.45 15.8 11.15C15.54 10.92 15.42 10.68 15.32 10.18C15.27 9.92 15.2 9.66 15.17 9.6C15.12 9.54 15.14 9.39 15.19 9.2C15.49 8.15 14.25 7.13 12.28 6.8C11.6 6.69 11.59 6.7 11.62 7.51C11.66 8.28 11.82 8.66 12.29 9.11C12.67 9.49 13.16 9.75 13.71 9.88C14.03 9.95 14.14 10.01 14.17 10.11C14.19 10.18 14.24 10.4 14.29 10.59C14.4 11.06 14.76 11.59 15.13 11.85C15.28 11.95 15.41 12.05 15.39 12.07C15.37 12.08 15.14 12.14 14.88 12.2C14.16 12.37 13.58 12.35 13.09 12.13C12.49 11.86 12.26 11.57 12.1 10.94C11.86 10 11.5 9.57 10.4 8.97C9.87 8.68 9.83 8.63 9.83 8.44C9.83 8.06 9.67 7.72 9.37 7.45C8.67 6.81 7.42 6.62 6.02 6.92C5.61 7.01 5.58 7.03 5.63 7.19C5.69 7.46 6.29 8.25 6.69 8.6C7.21 9.06 7.67 9.22 8.43 9.23L8.98 9.23L9.65 9.61C10.65 10.17 10.87 10.42 11.01 11.16C11.13 11.75 11.36 12.14 11.83 12.51C12.48 13.02 13.36 13.28 14.24 13.22C14.49 13.21 15.09 13.09 15.58 12.96C16.4 12.75 16.54 12.73 17.32 12.73C18.12 12.73 18.21 12.74 18.62 12.91C18.88 13.01 19.26 13.24 19.52 13.45C20.29 14.07 20.66 14.86 20.66 15.9L20.66 16.41L20.48 16.11C19.98 15.31 18.91 14.58 17.81 14.3C17.32 14.17 17.12 14.16 14.69 14.13L12.09 14.1L11.67 13.93C10.77 13.58 10.27 13.06 9.87 12.05C9.42 10.95 8.84 10.34 7.99 10.09C7.64 9.98 7.45 9.96 6.86 9.98C6.26 10 6.08 10.03 5.66 10.19C4.9 10.48 4.19 10.91 4.19 11.1C4.19 11.23 5.12 11.94 5.62 12.19C6.25 12.51 6.67 12.61 7.34 12.61C7.75 12.6 8.06 12.56 8.34 12.48C8.56 12.4 8.75 12.35 8.76 12.36C8.77 12.37 8.87 12.58 8.99 12.83C9.51 13.9 10.46 14.63 11.76 14.97C12.19 15.08 12.49 15.09 14.47 15.13C16.51 15.17 16.73 15.18 17.14 15.3C18.06 15.58 18.73 16.06 19.15 16.77C19.48 17.33 19.63 17.95 19.63 18.83C19.62 20.94 18.35 22.74 16.45 23.28C16.09 23.39 15.77 23.41 14.24 23.45C12.43 23.49 12.25 23.51 11.6 23.78C11.25 23.92 10.96 24.12 10.63 24.46L10.33 24.75L9.83 24.75C8.89 24.75 8.63 24.83 7.98 25.32C7.39 25.76 7.34 25.78 6.84 25.85C6.02 25.96 6.1 26.63 6.93 26.62C7.61 26.61 7.97 26.49 8.49 26.07C8.75 25.87 9.05 25.67 9.15 25.64C9.24 25.61 9.54 25.59 9.81 25.59C10.62 25.59 10.85 25.51 11.39 25.05C12.1 24.46 12.16 24.44 13.67 24.4C14.36 24.38 14.92 24.39 14.9 24.41C14.88 24.44 14.82 24.46 14.77 24.46C14.71 24.46 14.4 24.56 14.08 24.7C13.5 24.93 13.12 25.18 12.54 25.71L12.24 25.98L11.43 26.06C10.99 26.1 10.45 26.18 10.23 26.25C9.74 26.39 9.27 26.75 8.96 27.22C8.53 27.87 8.21 28.02 7.23 28.02C6.36 28.02 5.85 28.26 5.19 29C5.07 29.13 4.85 29.35 4.69 29.49C4.37 29.77 4.34 29.98 4.56 30.16C4.83 30.37 5.06 30.31 5.55 29.9C5.81 29.69 6.16 29.38 6.35 29.21L6.68 28.89L7.5 28.85C8.77 28.78 9.23 28.57 9.75 27.78C10.15 27.2 10.42 27.03 11.1 26.95C11.36 26.92 11.66 26.89 11.77 26.89L11.97 26.89L11.93 27.39C11.9 27.77 11.92 28.01 12.06 28.51C12.27 29.33 12.23 29.56 11.8 30.03C11.49 30.37 11.19 30.57 10.57 30.89C10.36 31 10.3 31.07 10.29 31.24C10.27 31.42 10.3 31.48 10.46 31.56C10.63 31.65 10.69 31.65 10.96 31.58C11.69 31.39 12.62 30.73 12.98 30.16C13.29 29.67 13.35 29.29 13.2 28.55C12.97 27.33 13.15 26.57 13.81 26.04C14.22 25.71 14.51 25.57 15.38 25.29C17 24.78 18 24.26 19.05 23.4L19.77 22.8L19.77 23.12C19.77 23.57 19.52 24.16 19.18 24.51C18.61 25.09 17.53 25.64 16.43 25.92C15.57 26.13 15.34 26.24 14.93 26.59C14.13 27.27 14.07 27.94 14.79 27.89C15.02 27.87 15.09 27.83 15.34 27.54C15.72 27.07 15.96 26.93 16.7 26.75C17.57 26.53 18.02 26.37 18.65 26.03C19.38 25.65 19.93 25.24 20.29 24.8L20.59 24.45L20.59 24.98C20.59 25.27 20.57 25.6 20.55 25.7C20.47 25.98 19.99 26.38 19.4 26.63C18.48 27.01 18.07 27.45 18.01 28.11C17.99 28.38 18.02 28.55 18.14 28.82C18.24 29.02 18.33 29.29 18.34 29.43C18.38 29.66 18.35 29.7 18.04 29.97C17.66 30.29 17.59 30.54 17.83 30.71C18.06 30.88 18.33 30.84 18.68 30.58C19.37 30.08 19.54 29.49 19.22 28.77C19 28.25 18.99 28.13 19.14 27.91C19.28 27.69 19.51 27.54 20.07 27.28C20.34 27.16 20.64 26.99 20.76 26.9L20.96 26.75L20.96 29.49C20.96 32.16 20.96 32.22 21.12 32.38C21.31 32.57 21.7 32.59 21.93 32.41C22.07 32.3 22.07 32.22 22.07 29.52L22.07 26.75L22.32 26.93C22.45 27.03 22.73 27.19 22.94 27.27C23.47 27.48 23.82 27.74 23.96 28.02C24.06 28.24 24.06 28.28 23.96 28.51C23.59 29.31 23.57 29.45 23.76 29.89C23.92 30.28 24.56 30.81 24.87 30.81C25.13 30.81 25.21 30.76 25.33 30.59C25.46 30.4 25.44 30.35 25.13 30.08C24.59 29.61 24.58 29.53 24.9 28.88C25.1 28.49 25.13 28.36 25.1 28.09C25.02 27.54 24.44 26.95 23.65 26.63C22.66 26.23 22.45 25.88 22.51 24.76L22.52 24.49L22.75 24.78C23.41 25.62 24.92 26.44 26.43 26.8C27.21 26.98 27.33 27.04 27.73 27.5C28 27.81 28.09 27.88 28.3 27.89C28.6 27.91 28.83 27.77 28.83 27.56C28.83 27.17 28.15 26.45 27.57 26.22C27.39 26.14 26.98 26.01 26.68 25.94C26.05 25.79 25.38 25.54 24.93 25.28C24.43 24.99 23.82 24.47 23.64 24.2C23.46 23.9 23.26 23.23 23.26 22.91L23.27 22.71L23.43 22.88C23.74 23.25 24.88 24.07 25.52 24.41C26.22 24.78 27.04 25.11 27.92 25.37C29.5 25.85 30.25 26.81 30.02 28.06C29.78 29.29 29.78 29.3 29.9 29.69C29.96 29.9 30.1 30.18 30.19 30.31C30.56 30.8 31.45 31.38 32.16 31.6C32.49 31.7 32.79 31.57 32.82 31.3C32.85 31.07 32.75 30.96 32.39 30.81C31.66 30.51 30.91 29.71 30.91 29.23C30.91 29.12 30.97 28.78 31.06 28.48C31.18 28.06 31.21 27.81 31.18 27.4L31.14 26.87L31.68 26.91C32.58 26.98 32.89 27.13 33.29 27.73C33.61 28.2 33.88 28.45 34.32 28.64C34.65 28.78 34.82 28.81 35.55 28.85C36.52 28.89 36.46 28.87 37.18 29.59C37.82 30.25 38.17 30.39 38.54 30.18C38.75 30.06 38.76 29.74 38.54 29.59C38.45 29.53 38.22 29.3 38.01 29.09C37.11 28.17 36.93 28.08 35.75 28.01C34.71 27.96 34.62 27.91 34.11 27.18C33.53 26.36 32.98 26.13 31.37 26.03C30.77 25.99 30.77 25.98 30.57 25.76C30.11 25.23 29.32 24.75 28.52 24.52L28.12 24.4L29.42 24.42C30.95 24.43 31.12 24.48 31.63 24.99C32.11 25.47 32.42 25.59 33.19 25.59C33.92 25.59 34.08 25.64 34.56 26.06C34.98 26.42 35.19 26.51 35.78 26.59C36.29 26.67 36.56 26.61 36.69 26.42C36.9 26.11 36.7 25.92 36.07 25.83C35.78 25.79 35.63 25.71 35.22 25.39C34.57 24.88 34.37 24.8 33.52 24.77C32.84 24.74 32.83 24.74 32.59 24.52C31.54 23.58 31.08 23.45 28.84 23.45C26.72 23.45 26.16 23.3 25.15 22.47C24.19 21.69 23.66 20.72 23.49 19.39C23.31 18.06 23.69 16.83 24.52 16.07C24.93 15.7 25.36 15.47 25.94 15.31C26.38 15.18 26.59 15.17 28.61 15.14C30.74 15.1 30.81 15.09 31.39 14.93C32.15 14.73 32.5 14.56 33.04 14.16C33.53 13.79 33.89 13.35 34.13 12.79C34.22 12.58 34.32 12.39 34.34 12.38C34.35 12.36 34.55 12.4 34.77 12.48C35.32 12.65 36.28 12.66 36.81 12.5C37.34 12.34 37.91 12.02 38.55 11.53L39.11 11.11L38.92 10.95C38.59 10.66 37.67 10.21 37.16 10.09C36.86 10.01 36.45 9.96 36.14 9.96C34.7 9.96 33.79 10.62 33.22 12.11C32.9 12.93 32.6 13.31 31.97 13.66C31.21 14.08 31.14 14.09 28.35 14.13C25.59 14.17 25.44 14.19 24.53 14.55C23.92 14.79 23.02 15.49 22.69 16L22.45 16.35L22.45 15.84C22.45 14.52 23.22 13.38 24.43 12.92C24.9 12.74 24.98 12.73 25.79 12.73C26.57 12.73 26.71 12.75 27.53 12.96C28.66 13.25 29.23 13.3 29.92 13.13C30.74 12.93 31.38 12.55 31.77 12.02C31.87 11.87 32.01 11.51 32.1 11.18C32.3 10.37 32.49 10.17 33.54 9.58C34.03 9.31 34.1 9.29 34.65 9.26C35.43 9.21 36.01 9 36.5 8.59C36.88 8.26 37.56 7.24 37.49 7.1C37.42 6.94 36.65 6.81 35.84 6.81C34.31 6.81 33.47 7.32 33.32 8.32L33.27 8.66L32.7 8.98C31.59 9.61 31.25 10.01 31.01 10.95C30.85 11.6 30.6 11.88 29.98 12.14C29.43 12.36 28.8 12.38 28.14 12.17L27.71 12.04L28.07 11.73C28.55 11.32 28.67 11.13 28.83 10.51L28.95 10L29.44 9.88C30.34 9.64 30.94 9.19 31.29 8.49C31.46 8.12 31.57 6.92 31.43 6.77C31.37 6.69 31.27 6.7 30.71 6.82C28.73 7.22 27.68 8.11 27.92 9.19C27.96 9.36 27.96 9.53 27.92 9.62C27.88 9.7 27.8 9.99 27.75 10.27C27.55 11.21 27.05 11.53 25.65 11.59C24.37 11.65 23.69 11.84 22.94 12.36C22.74 12.49 22.48 12.73 22.33 12.9L22.08 13.19L22.12 12.76C22.22 11.68 22.59 10.9 23.26 10.31C23.76 9.87 24.08 9.71 24.95 9.44C26.12 9.09 26.4 8.9 26.97 8.03C27.28 7.56 28.87 6.28 29.65 5.88C30.34 5.53 30.71 5.2 31.01 4.69C31.23 4.31 31.24 4.28 31.24 3.5C31.24 2.69 31.08 2.01 30.9 2.01C30.86 2.01 30.62 2.07 30.36 2.14C28.31 2.68 27.3 4.06 27.95 5.43L28.09 5.72L27.2 6.43C26.44 7.04 26.25 7.22 25.97 7.66C25.79 7.95 25.56 8.23 25.45 8.3C25.36 8.36 24.92 8.51 24.48 8.63C23.51 8.9 23.05 9.13 22.51 9.61L22.08 9.98L22.12 9.76C22.28 8.88 22.71 8.15 23.36 7.64C23.69 7.37 23.97 7.23 24.66 6.97C25.99 6.46 26 6.46 26.35 6.19C26.72 5.92 26.77 5.71 26.53 5.52C26.31 5.34 25.99 5.37 25.65 5.59C25.49 5.7 25.2 5.84 25 5.9C23.55 6.32 23.16 6.5 22.51 7.05C22.25 7.27 21.93 7.61 21.79 7.8L21.55 8.14L21.3 7.81C20.6 6.88 19.95 6.48 18.23 5.94C17.9 5.83 17.5 5.67 17.35 5.57C17.02 5.36 16.71 5.34 16.55 5.53C16.2 5.92 16.64 6.28 18.17 6.88C19.04 7.22 19.34 7.37 19.68 7.64C20.41 8.21 20.83 8.87 20.93 9.62L20.98 10L20.69 9.73C20.13 9.19 19.48 8.84 18.62 8.63C17.76 8.43 17.57 8.3 17.18 7.71C16.9 7.29 16.72 7.1 15.93 6.48L15 5.75L15.12 5.53C15.36 5.09 15.41 4.84 15.38 4.45C15.29 3.51 14.46 2.72 13.06 2.24C12.45 2.03 12.14 1.98 12.1 2.09ZM13.76 4.06C14.03 4.37 14.21 4.75 14.21 4.99C14.21 5.2 14.12 5.17 13.88 4.88C13.7 4.64 13.39 4.02 13.39 3.88C13.39 3.72 13.53 3.79 13.76 4.06ZM29.69 4.07C29.63 4.34 29.15 5.16 29.04 5.16C28.93 5.16 28.96 4.72 29.1 4.47C29.39 3.9 29.79 3.64 29.69 4.07ZM8.39 7.96C8.81 8.19 8.93 8.41 8.6 8.34C8.34 8.29 7.78 7.99 7.73 7.86C7.65 7.7 8 7.76 8.39 7.96ZM35.43 7.82C35.43 7.95 34.68 8.37 34.45 8.37C34.2 8.37 34.34 8.17 34.72 7.96C35.06 7.79 35.43 7.71 35.43 7.82ZM13.69 8.36C13.98 8.6 14.13 8.81 14.13 8.94C14.13 9.13 14.06 9.12 13.79 8.88C13.47 8.62 13.24 8.34 13.24 8.22C13.24 8.14 13.27 8.14 13.41 8.19C13.5 8.23 13.63 8.31 13.69 8.36ZM29.87 8.19C29.87 8.4 29.24 9.08 29.04 9.08C28.92 9.08 28.97 8.83 29.13 8.63C29.28 8.44 29.7 8.13 29.82 8.13C29.85 8.13 29.87 8.16 29.87 8.19ZM36.36 11.03C36.38 11.06 36.32 11.13 36.24 11.19C36.03 11.3 34.85 11.6 34.79 11.56C34.62 11.41 35.22 11.13 35.87 11.04C36.06 11.02 36.24 10.99 36.27 10.99C36.29 10.99 36.33 11 36.36 11.03ZM8.09 11.25C8.27 11.33 8.42 11.42 8.42 11.45C8.42 11.62 7.13 11.34 6.87 11.12C6.67 10.95 7.68 11.06 8.09 11.25Z" fill="#FFFFFF" fill-opacity="1.000000" fill-rule="nonzero"/>
	<path id="path" d="M11.98 2.37C11.83 2.76 11.8 3.84 11.94 4.27C12.16 4.95 12.71 5.54 13.46 5.9C13.69 6.01 14.33 6.46 14.88 6.89C15.73 7.56 15.93 7.76 16.2 8.17C16.65 8.87 17.01 9.12 18.1 9.45C19.05 9.75 19.48 9.98 19.97 10.45C20.55 11 20.96 11.99 20.96 12.8L20.96 13.14L20.77 12.9C20.66 12.78 20.42 12.56 20.23 12.42C19.48 11.88 18.71 11.63 17.76 11.63C16.87 11.63 16.14 11.45 15.8 11.15C15.54 10.92 15.42 10.68 15.32 10.18C15.27 9.92 15.2 9.66 15.17 9.6C15.12 9.54 15.14 9.39 15.19 9.2C15.49 8.15 14.25 7.13 12.28 6.8C11.6 6.69 11.59 6.7 11.62 7.51C11.66 8.28 11.82 8.66 12.29 9.11C12.67 9.49 13.16 9.75 13.71 9.88C14.03 9.95 14.14 10.01 14.17 10.11C14.19 10.18 14.24 10.4 14.29 10.59C14.4 11.06 14.76 11.59 15.13 11.85C15.28 11.95 15.41 12.05 15.39 12.07C15.37 12.08 15.14 12.14 14.88 12.2C14.16 12.37 13.58 12.35 13.09 12.13C12.49 11.86 12.26 11.57 12.1 10.94C11.86 10 11.5 9.57 10.4 8.97C9.87 8.68 9.83 8.63 9.83 8.44C9.83 8.06 9.67 7.72 9.37 7.45C8.67 6.81 7.42 6.62 6.02 6.92C5.61 7.01 5.58 7.03 5.63 7.19C5.69 7.46 6.29 8.25 6.69 8.6C7.21 9.06 7.67 9.22 8.43 9.23L8.98 9.23L9.65 9.61C10.65 10.17 10.87 10.42 11.01 11.16C11.13 11.75 11.36 12.14 11.83 12.51C12.48 13.02 13.36 13.28 14.24 13.22C14.49 13.21 15.09 13.09 15.58 12.96C16.4 12.75 16.54 12.73 17.32 12.73C18.12 12.73 18.21 12.74 18.62 12.91C18.88 13.01 19.26 13.24 19.52 13.45C20.29 14.07 20.66 14.86 20.66 15.9L20.66 16.41L20.48 16.11C19.98 15.31 18.91 14.58 17.81 14.3C17.32 14.17 17.12 14.16 14.69 14.13L12.09 14.1L11.67 13.93C10.77 13.58 10.27 13.06 9.87 12.05C9.42 10.95 8.84 10.34 7.99 10.09C7.64 9.98 7.45 9.96 6.86 9.98C6.26 10 6.08 10.03 5.66 10.19C4.9 10.48 4.19 10.91 4.19 11.1C4.19 11.23 5.12 11.94 5.62 12.19C6.25 12.51 6.67 12.61 7.34 12.61C7.75 12.6 8.06 12.56 8.34 12.48C8.56 12.4 8.75 12.35 8.76 12.36C8.77 12.37 8.87 12.58 8.99 12.83C9.51 13.9 10.46 14.63 11.76 14.97C12.19 15.08 12.49 15.09 14.47 15.13C16.51 15.17 16.73 15.18 17.14 15.3C18.06 15.58 18.73 16.06 19.15 16.77C19.48 17.33 19.63 17.95 19.63 18.83C19.62 20.94 18.35 22.74 16.45 23.28C16.09 23.39 15.77 23.41 14.24 23.45C12.43 23.49 12.25 23.51 11.6 23.78C11.25 23.92 10.96 24.12 10.63 24.46L10.33 24.75L9.83 24.75C8.89 24.75 8.63 24.83 7.98 25.32C7.39 25.76 7.34 25.78 6.84 25.85C6.02 25.96 6.1 26.63 6.93 26.62C7.61 26.61 7.97 26.49 8.49 26.07C8.75 25.87 9.05 25.67 9.15 25.64C9.24 25.61 9.54 25.59 9.81 25.59C10.62 25.59 10.85 25.51 11.39 25.05C12.1 24.46 12.16 24.44 13.67 24.4C14.36 24.38 14.92 24.39 14.9 24.41C14.88 24.44 14.82 24.46 14.77 24.46C14.71 24.46 14.4 24.56 14.08 24.7C13.5 24.93 13.12 25.18 12.54 25.71L12.24 25.98L11.43 26.06C10.99 26.1 10.45 26.18 10.23 26.25C9.74 26.39 9.27 26.75 8.96 27.22C8.53 27.87 8.21 28.02 7.23 28.02C6.36 28.02 5.85 28.26 5.19 29C5.07 29.13 4.85 29.35 4.69 29.49C4.37 29.77 4.34 29.98 4.56 30.16C4.83 30.37 5.06 30.31 5.55 29.9C5.81 29.69 6.16 29.38 6.35 29.21L6.68 28.89L7.5 28.85C8.77 28.78 9.23 28.57 9.75 27.78C10.15 27.2 10.42 27.03 11.1 26.95C11.36 26.92 11.66 26.89 11.77 26.89L11.97 26.89L11.93 27.39C11.9 27.77 11.92 28.01 12.06 28.51C12.27 29.33 12.23 29.56 11.8 30.03C11.49 30.37 11.19 30.57 10.57 30.89C10.36 31 10.3 31.07 10.29 31.24C10.27 31.42 10.3 31.48 10.46 31.56C10.63 31.65 10.69 31.65 10.96 31.58C11.69 31.39 12.62 30.73 12.98 30.16C13.29 29.67 13.35 29.29 13.2 28.55C12.97 27.33 13.15 26.57 13.81 26.04C14.22 25.71 14.51 25.57 15.38 25.29C17 24.78 18 24.26 19.05 23.4L19.77 22.8L19.77 23.12C19.77 23.57 19.52 24.16 19.18 24.51C18.61 25.09 17.53 25.64 16.43 25.92C15.57 26.13 15.34 26.24 14.93 26.59C14.13 27.27 14.07 27.94 14.79 27.89C15.02 27.87 15.09 27.83 15.34 27.54C15.72 27.07 15.96 26.93 16.7 26.75C17.57 26.53 18.02 26.37 18.65 26.03C19.38 25.65 19.93 25.24 20.29 24.8L20.59 24.45L20.59 24.98C20.59 25.27 20.57 25.6 20.55 25.7C20.47 25.98 19.99 26.38 19.4 26.63C18.48 27.01 18.07 27.45 18.01 28.11C17.99 28.38 18.02 28.55 18.14 28.82C18.24 29.02 18.33 29.29 18.34 29.43C18.38 29.66 18.35 29.7 18.04 29.97C17.66 30.29 17.59 30.54 17.83 30.71C18.06 30.88 18.33 30.84 18.68 30.58C19.37 30.08 19.54 29.49 19.22 28.77C19 28.25 18.99 28.13 19.14 27.91C19.28 27.69 19.51 27.54 20.07 27.28C20.34 27.16 20.64 26.99 20.76 26.9L20.96 26.75L20.96 29.49C20.96 32.16 20.96 32.22 21.12 32.38C21.31 32.57 21.7 32.59 21.93 32.41C22.07 32.3 22.07 32.22 22.07 29.52L22.07 26.75L22.32 26.93C22.45 27.03 22.73 27.19 22.94 27.27C23.47 27.48 23.82 27.74 23.96 28.02C24.06 28.24 24.06 28.28 23.96 28.51C23.59 29.31 23.57 29.45 23.76 29.89C23.92 30.28 24.56 30.81 24.87 30.81C25.13 30.81 25.21 30.76 25.33 30.59C25.46 30.4 25.44 30.35 25.13 30.08C24.59 29.61 24.58 29.53 24.9 28.88C25.1 28.49 25.13 28.36 25.1 28.09C25.02 27.54 24.44 26.95 23.65 26.63C22.66 26.23 22.45 25.88 22.51 24.76L22.52 24.49L22.75 24.78C23.41 25.62 24.92 26.44 26.43 26.8C27.21 26.98 27.33 27.04 27.73 27.5C28 27.81 28.09 27.88 28.3 27.89C28.6 27.91 28.83 27.77 28.83 27.56C28.83 27.17 28.15 26.45 27.57 26.22C27.39 26.14 26.98 26.01 26.68 25.94C26.05 25.79 25.38 25.54 24.93 25.28C24.43 24.99 23.82 24.47 23.64 24.2C23.46 23.9 23.26 23.23 23.26 22.91L23.27 22.71L23.43 22.88C23.74 23.25 24.88 24.07 25.52 24.41C26.22 24.78 27.04 25.11 27.92 25.37C29.5 25.85 30.25 26.81 30.02 28.06C29.78 29.29 29.78 29.3 29.9 29.69C29.96 29.9 30.1 30.18 30.19 30.31C30.56 30.8 31.45 31.38 32.16 31.6C32.49 31.7 32.79 31.57 32.82 31.3C32.85 31.07 32.75 30.96 32.39 30.81C31.66 30.51 30.91 29.71 30.91 29.23C30.91 29.12 30.97 28.78 31.06 28.48C31.18 28.06 31.21 27.81 31.18 27.4L31.14 26.87L31.68 26.91C32.58 26.98 32.89 27.13 33.29 27.73C33.61 28.2 33.88 28.45 34.32 28.64C34.65 28.78 34.82 28.81 35.55 28.85C36.52 28.89 36.46 28.87 37.18 29.59C37.82 30.25 38.17 30.39 38.54 30.18C38.75 30.06 38.76 29.74 38.54 29.59C38.45 29.53 38.22 29.3 38.01 29.09C37.11 28.17 36.93 28.08 35.75 28.01C34.71 27.96 34.62 27.91 34.11 27.18C33.53 26.36 32.98 26.13 31.37 26.03C30.77 25.99 30.77 25.98 30.57 25.76C30.11 25.23 29.32 24.75 28.52 24.52L28.12 24.4L29.42 24.42C30.95 24.43 31.12 24.48 31.63 24.99C32.11 25.47 32.42 25.59 33.19 25.59C33.92 25.59 34.08 25.64 34.56 26.06C34.98 26.42 35.19 26.51 35.78 26.59C36.29 26.67 36.56 26.61 36.69 26.42C36.9 26.11 36.7 25.92 36.07 25.83C35.78 25.79 35.63 25.71 35.22 25.39C34.57 24.88 34.37 24.8 33.52 24.77C32.84 24.74 32.83 24.74 32.59 24.52C31.54 23.58 31.08 23.45 28.84 23.45C26.72 23.45 26.16 23.3 25.15 22.47C24.19 21.69 23.66 20.72 23.49 19.39C23.31 18.06 23.69 16.83 24.52 16.07C24.93 15.7 25.36 15.47 25.94 15.31C26.38 15.18 26.59 15.17 28.61 15.14C30.74 15.1 30.81 15.09 31.39 14.93C32.15 14.73 32.5 14.56 33.04 14.16C33.53 13.79 33.89 13.35 34.13 12.79C34.22 12.58 34.32 12.39 34.34 12.38C34.35 12.36 34.55 12.4 34.77 12.48C35.32 12.65 36.28 12.66 36.81 12.5C37.34 12.34 37.91 12.02 38.55 11.53L39.11 11.11L38.92 10.95C38.59 10.66 37.67 10.21 37.16 10.09C36.86 10.01 36.45 9.96 36.14 9.96C34.7 9.96 33.79 10.62 33.22 12.11C32.9 12.93 32.6 13.31 31.97 13.66C31.21 14.08 31.14 14.09 28.35 14.13C25.59 14.17 25.44 14.19 24.53 14.55C23.92 14.79 23.02 15.49 22.69 16L22.45 16.35L22.45 15.84C22.45 14.52 23.22 13.38 24.43 12.92C24.9 12.74 24.98 12.73 25.79 12.73C26.57 12.73 26.71 12.75 27.53 12.96C28.66 13.25 29.23 13.3 29.92 13.13C30.74 12.93 31.38 12.55 31.77 12.02C31.87 11.87 32.01 11.51 32.1 11.18C32.3 10.37 32.49 10.17 33.54 9.58C34.03 9.31 34.1 9.29 34.65 9.26C35.43 9.21 36.01 9 36.5 8.59C36.88 8.26 37.56 7.24 37.49 7.1C37.42 6.94 36.65 6.81 35.84 6.81C34.31 6.81 33.47 7.32 33.32 8.32L33.27 8.66L32.7 8.98C31.59 9.61 31.25 10.01 31.01 10.95C30.85 11.6 30.6 11.88 29.98 12.14C29.43 12.36 28.8 12.38 28.14 12.17L27.71 12.04L28.07 11.73C28.55 11.32 28.67 11.13 28.83 10.51L28.95 10L29.44 9.88C30.34 9.64 30.94 9.19 31.29 8.49C31.46 8.12 31.57 6.92 31.43 6.77C31.37 6.69 31.27 6.7 30.71 6.82C28.73 7.22 27.68 8.11 27.92 9.19C27.96 9.36 27.96 9.53 27.92 9.62C27.88 9.7 27.8 9.99 27.75 10.27C27.55 11.21 27.05 11.53 25.65 11.59C24.37 11.65 23.69 11.84 22.94 12.36C22.74 12.49 22.48 12.73 22.33 12.9L22.08 13.19L22.12 12.76C22.22 11.68 22.59 10.9 23.26 10.31C23.76 9.87 24.08 9.71 24.95 9.44C26.12 9.09 26.4 8.9 26.97 8.03C27.28 7.56 28.87 6.28 29.65 5.88C30.34 5.53 30.71 5.2 31.01 4.69C31.23 4.31 31.24 4.28 31.24 3.5C31.24 2.69 31.08 2.01 30.9 2.01C30.86 2.01 30.62 2.07 30.36 2.14C28.31 2.68 27.3 4.06 27.95 5.43L28.09 5.72L27.2 6.43C26.44 7.04 26.25 7.22 25.97 7.66C25.79 7.95 25.56 8.23 25.45 8.3C25.36 8.36 24.92 8.51 24.48 8.63C23.51 8.9 23.05 9.13 22.51 9.61L22.08 9.98L22.12 9.76C22.28 8.88 22.71 8.15 23.36 7.64C23.69 7.37 23.97 7.23 24.66 6.97C25.99 6.46 26 6.46 26.35 6.19C26.72 5.92 26.77 5.71 26.53 5.52C26.31 5.34 25.99 5.37 25.65 5.59C25.49 5.7 25.2 5.84 25 5.9C23.55 6.32 23.16 6.5 22.51 7.05C22.25 7.27 21.93 7.61 21.79 7.8L21.55 8.14L21.3 7.81C20.6 6.88 19.95 6.48 18.23 5.94C17.9 5.83 17.5 5.67 17.35 5.57C17.02 5.36 16.71 5.34 16.55 5.53C16.2 5.92 16.64 6.28 18.17 6.88C19.04 7.22 19.34 7.37 19.68 7.64C20.41 8.21 20.83 8.87 20.93 9.62L20.98 10L20.69 9.73C20.13 9.19 19.48 8.84 18.62 8.63C17.76 8.43 17.57 8.3 17.18 7.71C16.9 7.29 16.72 7.1 15.93 6.48L15 5.75L15.12 5.53C15.36 5.09 15.41 4.84 15.38 4.45C15.29 3.51 14.46 2.72 13.06 2.24C12.45 2.03 12.14 1.98 12.1 2.09C12.09 2.13 12.03 2.26 11.98 2.37ZM14.21 4.99C14.21 5.2 14.12 5.17 13.88 4.88C13.7 4.64 13.39 4.02 13.39 3.88C13.39 3.72 13.53 3.79 13.76 4.06C14.03 4.37 14.21 4.75 14.21 4.99ZM29.04 5.16C28.93 5.16 28.96 4.72 29.1 4.47C29.39 3.9 29.79 3.64 29.69 4.07C29.63 4.34 29.15 5.16 29.04 5.16ZM8.6 8.34C8.34 8.29 7.78 7.99 7.73 7.86C7.65 7.7 8 7.76 8.39 7.96C8.81 8.19 8.93 8.41 8.6 8.34ZM34.45 8.37C34.2 8.37 34.34 8.17 34.72 7.96C35.06 7.79 35.43 7.71 35.43 7.82C35.43 7.95 34.68 8.37 34.45 8.37ZM14.13 8.94C14.13 9.13 14.06 9.12 13.79 8.88C13.47 8.62 13.24 8.34 13.24 8.22C13.24 8.14 13.27 8.14 13.41 8.19C13.5 8.23 13.63 8.31 13.69 8.36C13.98 8.6 14.13 8.81 14.13 8.94ZM29.04 9.08C28.92 9.08 28.97 8.83 29.13 8.63C29.28 8.44 29.7 8.13 29.82 8.13C29.85 8.13 29.87 8.16 29.87 8.19C29.87 8.4 29.24 9.08 29.04 9.08ZM36.24 11.19C36.03 11.3 34.85 11.6 34.79 11.56C34.62 11.41 35.22 11.13 35.87 11.04C36.06 11.02 36.24 10.99 36.27 10.99C36.29 10.99 36.33 11 36.36 11.03C36.38 11.06 36.32 11.13 36.24 11.19ZM8.42 11.45C8.42 11.62 7.13 11.34 6.87 11.12C6.67 10.95 7.68 11.06 8.09 11.25C8.27 11.33 8.42 11.42 8.42 11.45Z" stroke="#000000" stroke-opacity="0" stroke-width="0.133333"/>
	<path id="path" d="M7.85 4.01C7.7 4.04 7.68 4.08 7.68 4.31C7.68 4.64 7.85 5.22 8.06 5.53C8.29 5.9 8.81 6.31 9.29 6.5C9.76 6.69 10.28 6.72 10.85 6.59C11.22 6.51 11.28 6.41 11.27 5.78C11.27 5.43 11.24 5.32 11.07 5.09C10.72 4.6 10.13 4.28 9.32 4.12C8.84 4.03 8.09 3.97 7.85 4.01ZM9.78 5.32C9.91 5.37 10.07 5.47 10.14 5.54C10.3 5.69 10.31 5.87 10.18 5.87C9.97 5.87 9.24 5.22 9.45 5.22C9.5 5.22 9.64 5.26 9.78 5.32Z" fill="#FFFFFF" fill-opacity="1.000000" fill-rule="nonzero"/>
	<path id="path" d="M7.68 4.31C7.68 4.64 7.85 5.22 8.06 5.53C8.29 5.9 8.81 6.31 9.29 6.5C9.76 6.69 10.28 6.72 10.85 6.59C11.22 6.51 11.28 6.41 11.27 5.78C11.27 5.43 11.24 5.32 11.07 5.09C10.72 4.6 10.13 4.28 9.32 4.12C8.84 4.03 8.09 3.97 7.85 4.01C7.7 4.04 7.68 4.08 7.68 4.31ZM10.14 5.54C10.3 5.69 10.31 5.87 10.18 5.87C9.97 5.87 9.24 5.22 9.45 5.22C9.5 5.22 9.64 5.26 9.78 5.32C9.91 5.37 10.07 5.47 10.14 5.54Z" stroke="#000000" stroke-opacity="0" stroke-width="0.133333"/>
	<path id="path" d="M34.31 4.04C32.62 4.21 31.63 5.08 31.85 6.18C31.9 6.45 31.94 6.51 32.13 6.58C32.25 6.63 32.58 6.67 32.87 6.67C33.53 6.67 34.08 6.48 34.57 6.06C34.99 5.7 35.2 5.37 35.33 4.87C35.57 3.96 35.52 3.91 34.31 4.04ZM33.65 5.29C33.65 5.32 33.5 5.47 33.33 5.62C33.1 5.81 32.97 5.88 32.88 5.86C32.75 5.81 32.75 5.8 32.9 5.63C33.12 5.35 33.65 5.1 33.65 5.29Z" fill="#FFFFFF" fill-opacity="1.000000" fill-rule="nonzero"/>
	<path id="path" d="M31.85 6.18C31.9 6.45 31.94 6.51 32.13 6.58C32.25 6.63 32.58 6.67 32.87 6.67C33.53 6.67 34.08 6.48 34.57 6.06C34.99 5.7 35.2 5.37 35.33 4.87C35.57 3.96 35.52 3.91 34.31 4.04C32.62 4.21 31.63 5.08 31.85 6.18ZM33.33 5.62C33.1 5.81 32.97 5.88 32.88 5.86C32.75 5.81 32.75 5.8 32.9 5.63C33.12 5.35 33.65 5.1 33.65 5.29C33.65 5.32 33.5 5.47 33.33 5.62Z" stroke="#000000" stroke-opacity="0" stroke-width="0.133333"/>
	<path id="path" d="M6.58 13.62C6.36 13.67 6.08 13.75 5.95 13.81C5.54 13.98 4.9 14.55 4.66 14.96C4.28 15.57 4.28 15.58 4.63 15.69C5.03 15.82 6.14 15.93 6.63 15.88C7.48 15.81 8.24 15.38 8.53 14.82C8.69 14.51 8.67 14.11 8.49 13.94C8.19 13.62 7.26 13.47 6.58 13.62ZM7.55 14.45C7.57 14.53 6.81 14.84 6.59 14.84C6.27 14.84 6.43 14.68 7.01 14.44C7.22 14.35 7.52 14.36 7.55 14.45Z" fill="#FFFFFF" fill-opacity="1.000000" fill-rule="nonzero"/>
	<path id="path" d="M5.95 13.81C5.54 13.98 4.9 14.55 4.66 14.96C4.28 15.57 4.28 15.58 4.63 15.69C5.03 15.82 6.14 15.93 6.63 15.88C7.48 15.81 8.24 15.38 8.53 14.82C8.69 14.51 8.67 14.11 8.49 13.94C8.19 13.62 7.26 13.47 6.58 13.62C6.36 13.67 6.08 13.75 5.95 13.81ZM6.59 14.84C6.27 14.84 6.43 14.68 7.01 14.44C7.22 14.35 7.52 14.36 7.55 14.45C7.57 14.53 6.81 14.84 6.59 14.84Z" stroke="#000000" stroke-opacity="0" stroke-width="0.133333"/>
	<path id="path" d="M35.49 13.59C34.76 13.69 34.4 14.02 34.5 14.49C34.6 15.01 35.1 15.5 35.77 15.74C36.07 15.85 36.27 15.87 36.84 15.87C37.62 15.87 38.68 15.71 38.75 15.58C38.8 15.48 38.49 14.93 38.19 14.59C37.53 13.81 36.53 13.45 35.49 13.59ZM36.44 14.61C36.63 14.71 36.75 14.81 36.73 14.84C36.64 14.96 35.6 14.6 35.52 14.43C35.46 14.29 36.08 14.41 36.44 14.61Z" fill="#FFFFFF" fill-opacity="1.000000" fill-rule="nonzero"/>
	<path id="path" d="M34.5 14.49C34.6 15.01 35.1 15.5 35.77 15.74C36.07 15.85 36.27 15.87 36.84 15.87C37.62 15.87 38.68 15.71 38.75 15.58C38.8 15.48 38.49 14.93 38.19 14.59C37.53 13.81 36.53 13.45 35.49 13.59C34.76 13.69 34.4 14.02 34.5 14.49ZM36.73 14.84C36.64 14.96 35.6 14.6 35.52 14.43C35.46 14.29 36.08 14.41 36.44 14.61C36.63 14.71 36.75 14.81 36.73 14.84Z" stroke="#000000" stroke-opacity="0" stroke-width="0.133333"/>
	<path id="path" d="M11.98 15.85C11.19 15.96 10.53 16.36 10.29 16.88C10.11 17.26 10.02 17.9 10.09 18.29C10.14 18.57 10.15 18.58 10.38 18.58C10.73 18.58 11.68 18.35 12.03 18.19C12.98 17.75 13.35 16.93 12.99 16.15C12.81 15.77 12.74 15.75 11.98 15.85ZM12.06 16.79C12.06 16.93 11.59 17.36 11.48 17.31C11.37 17.26 11.43 17.12 11.66 16.87C11.85 16.66 12.06 16.62 12.06 16.79Z" fill="#FFFFFF" fill-opacity="1.000000" fill-rule="nonzero"/>
	<path id="path" d="M10.29 16.88C10.11 17.26 10.02 17.9 10.09 18.29C10.14 18.57 10.15 18.58 10.38 18.58C10.73 18.58 11.68 18.35 12.03 18.19C12.98 17.75 13.35 16.93 12.99 16.15C12.81 15.77 12.74 15.75 11.98 15.85C11.19 15.96 10.53 16.36 10.29 16.88ZM11.48 17.31C11.37 17.26 11.43 17.12 11.66 16.87C11.85 16.66 12.06 16.62 12.06 16.79C12.06 16.93 11.59 17.36 11.48 17.31Z" stroke="#000000" stroke-opacity="0" stroke-width="0.133333"/>
	<path id="path" d="M30.34 15.84C30.17 15.92 30.01 16.4 30 16.78C29.99 17.66 30.84 18.3 32.35 18.55C32.67 18.6 32.94 18.63 32.96 18.62C33.05 18.54 32.98 17.23 32.87 16.97C32.72 16.6 32.25 16.19 31.78 16C31.37 15.85 30.5 15.75 30.34 15.84ZM31.46 16.88C31.65 17.07 31.72 17.33 31.58 17.33C31.49 17.33 31.08 16.93 31.03 16.79C30.97 16.6 31.25 16.66 31.46 16.88Z" fill="#FFFFFF" fill-opacity="1.000000" fill-rule="nonzero"/>
	<path id="path" d="M30 16.78C29.99 17.66 30.84 18.3 32.35 18.55C32.67 18.6 32.94 18.63 32.96 18.62C33.05 18.54 32.98 17.23 32.87 16.97C32.72 16.6 32.25 16.19 31.78 16C31.37 15.85 30.5 15.75 30.34 15.84C30.17 15.92 30.01 16.4 30 16.78ZM31.58 17.33C31.49 17.33 31.08 16.93 31.03 16.79C30.97 16.6 31.25 16.66 31.46 16.88C31.65 17.07 31.72 17.33 31.58 17.33Z" stroke="#000000" stroke-opacity="0" stroke-width="0.133333"/>
	<path id="path" d="M15.68 28.15C15.1 28.32 15.29 29.09 15.91 29.09C16.52 29.09 16.75 28.39 16.2 28.17C15.97 28.07 15.95 28.07 15.68 28.15Z" fill="#FFFFFF" fill-opacity="1.000000" fill-rule="nonzero"/>
	<path id="path" d="M15.91 29.09C16.52 29.09 16.75 28.39 16.2 28.17C15.97 28.07 15.95 28.07 15.68 28.15C15.1 28.32 15.29 29.09 15.91 29.09Z" stroke="#000000" stroke-opacity="0" stroke-width="0.133333"/>
	<path id="path" d="M26.68 28.3C26.36 28.62 26.64 29.09 27.14 29.09C27.42 29.09 27.79 28.8 27.79 28.58C27.79 28.17 27 27.97 26.68 28.3Z" fill="#FFFFFF" fill-opacity="1.000000" fill-rule="nonzero"/>
	<path id="path" d="M27.14 29.09C27.42 29.09 27.79 28.8 27.79 28.58C27.79 28.17 27 27.97 26.68 28.3C26.36 28.62 26.64 29.09 27.14 29.09Z" stroke="#000000" stroke-opacity="0" stroke-width="0.133333"/>
	<path id="path" d="M15.65 30.21C15.34 30.36 15.28 30.58 15.45 30.86C15.61 31.13 15.88 31.22 16.21 31.11C16.66 30.96 16.78 30.44 16.41 30.25C16.12 30.1 15.89 30.09 15.65 30.21Z" fill="#FFFFFF" fill-opacity="1.000000" fill-rule="nonzero"/>
	<path id="path" d="M15.45 30.86C15.61 31.13 15.88 31.22 16.21 31.11C16.66 30.96 16.78 30.44 16.41 30.25C16.12 30.1 15.89 30.09 15.65 30.21C15.34 30.36 15.28 30.58 15.45 30.86Z" stroke="#000000" stroke-opacity="0" stroke-width="0.133333"/>
	<path id="path" d="M26.83 30.16C26.41 30.3 26.3 30.77 26.65 31.02C27.17 31.41 27.97 30.89 27.63 30.38C27.57 30.29 27.13 30.09 27.03 30.1C27.02 30.1 26.93 30.13 26.83 30.16Z" fill="#FFFFFF" fill-opacity="1.000000" fill-rule="nonzero"/>
	<path id="path" d="M26.65 31.02C27.17 31.41 27.97 30.89 27.63 30.38C27.57 30.29 27.13 30.09 27.03 30.1C27.02 30.1 26.93 30.13 26.83 30.16C26.41 30.3 26.3 30.77 26.65 31.02Z" stroke="#000000" stroke-opacity="0" stroke-width="0.133333"/>
	<path id="path" d="M7.24 30.55C6.89 30.91 7.19 31.41 7.76 31.41C7.96 31.41 8.34 31.09 8.34 30.93C8.34 30.76 8.15 30.48 8.01 30.43C7.72 30.34 7.39 30.4 7.24 30.55Z" fill="#FFFFFF" fill-opacity="1.000000" fill-rule="nonzero"/>
	<path id="path" d="M7.76 31.41C7.96 31.41 8.34 31.09 8.34 30.93C8.34 30.76 8.15 30.48 8.01 30.43C7.72 30.34 7.39 30.4 7.24 30.55C6.89 30.91 7.19 31.41 7.76 31.41Z" stroke="#000000" stroke-opacity="0" stroke-width="0.133333"/>
	<path id="path" d="M34.93 30.53C34.6 30.81 34.83 31.41 35.28 31.41C35.71 31.41 36.09 31.07 36 30.78C35.88 30.4 35.26 30.26 34.93 30.53Z" fill="#FFFFFF" fill-opacity="1.000000" fill-rule="nonzero"/>
	<path id="path" d="M35.28 31.41C35.71 31.41 36.09 31.07 36 30.78C35.88 30.4 35.26 30.26 34.93 30.53C34.6 30.81 34.83 31.41 35.28 31.41Z" stroke="#000000" stroke-opacity="0" stroke-width="0.133333"/>
	<path id="path" d="M24.61 31.65C24.11 31.8 24.27 32.41 24.81 32.41C25.05 32.41 25.34 32.18 25.34 32C25.34 31.74 24.95 31.55 24.61 31.65Z" fill="#FFFFFF" fill-opacity="1.000000" fill-rule="nonzero"/>
	<path id="path" d="M24.81 32.41C25.05 32.41 25.34 32.18 25.34 32C25.34 31.74 24.95 31.55 24.61 31.65C24.11 31.8 24.27 32.41 24.81 32.41Z" stroke="#000000" stroke-opacity="0" stroke-width="0.133333"/>
	<path id="path" d="M17.89 31.74C17.81 31.8 17.77 31.91 17.78 32.05C17.83 32.47 18.49 32.54 18.73 32.15C18.82 32 18.81 31.97 18.68 31.83C18.5 31.64 18.07 31.58 17.89 31.74Z" fill="#FFFFFF" fill-opacity="1.000000" fill-rule="nonzero"/>
	<path id="path" d="M17.78 32.05C17.83 32.47 18.49 32.54 18.73 32.15C18.82 32 18.81 31.97 18.68 31.83C18.5 31.64 18.07 31.58 17.89 31.74C17.81 31.8 17.77 31.91 17.78 32.05Z" stroke="#000000" stroke-opacity="0" stroke-width="0.133333"/>
	<path id="path" d="M19.66 34.37C19.39 34.46 19.11 34.78 19.1 35.02C19.09 35.13 19.08 35.53 19.07 35.89C19.05 36.24 19.05 36.55 19.04 36.55C19.04 36.56 18.94 36.5 18.83 36.42C18.45 36.13 18.22 36.07 17.54 36.07C16.97 36.07 16.86 36.08 16.41 36.27C14.5 37.05 14.08 39.09 15.57 40.36C16.26 40.94 17.15 41.22 17.92 41.09C18.34 41.02 18.69 40.87 18.92 40.67C19.05 40.55 19.05 40.55 19.19 40.73C19.35 40.93 19.74 41.14 19.98 41.14C20.26 41.14 20.72 40.92 20.86 40.72C20.96 40.55 20.98 40.18 20.98 37.7C21 35.07 20.99 34.87 20.86 34.68C20.66 34.38 20.09 34.23 19.66 34.37ZM18.4 37.5C19.06 37.75 19.37 38.52 19.04 39.09C18.8 39.51 18.4 39.72 17.84 39.72C17.07 39.72 16.52 39.15 16.6 38.44C16.68 37.67 17.6 37.19 18.4 37.5Z" fill="#FFFFFF" fill-opacity="1.000000" fill-rule="nonzero"/>
	<path id="path" d="M19.1 35.02C19.09 35.13 19.08 35.53 19.07 35.89C19.05 36.24 19.05 36.55 19.04 36.55C19.04 36.56 18.94 36.5 18.83 36.42C18.45 36.13 18.22 36.07 17.54 36.07C16.97 36.07 16.86 36.08 16.41 36.27C14.5 37.05 14.08 39.09 15.57 40.36C16.26 40.94 17.15 41.22 17.92 41.09C18.34 41.02 18.69 40.87 18.92 40.67C19.05 40.55 19.05 40.55 19.19 40.73C19.35 40.93 19.74 41.14 19.98 41.14C20.26 41.14 20.72 40.92 20.86 40.72C20.96 40.55 20.98 40.18 20.98 37.7C21 35.07 20.99 34.87 20.86 34.68C20.66 34.38 20.09 34.23 19.66 34.37C19.39 34.46 19.11 34.78 19.1 35.02ZM19.04 39.09C18.8 39.51 18.4 39.72 17.84 39.72C17.07 39.72 16.52 39.15 16.6 38.44C16.68 37.67 17.6 37.19 18.4 37.5C19.06 37.75 19.37 38.52 19.04 39.09Z" stroke="#000000" stroke-opacity="0" stroke-width="0.133333"/>
	<path id="path" d="M29.04 34.42C28.93 34.47 28.78 34.59 28.71 34.69C28.58 34.87 28.57 35.03 28.57 36.93C28.57 38.79 28.58 39.01 28.71 39.33C29.24 40.61 30.85 41.37 32.6 41.15C34.08 40.97 35.2 40.1 35.43 38.97C35.48 38.77 35.51 37.79 35.51 36.78C35.51 35.15 35.49 34.91 35.37 34.73C35.1 34.28 34.27 34.19 33.83 34.56C33.64 34.72 33.61 34.79 33.56 35.28C33.54 35.59 33.51 36.47 33.51 37.25C33.5 38.09 33.47 38.77 33.42 38.92C33.37 39.06 33.22 39.24 33.06 39.37C32.33 39.93 31.14 39.74 30.69 38.99C30.54 38.74 30.54 38.64 30.54 36.85C30.54 34.76 30.51 34.65 30.08 34.43C29.78 34.29 29.31 34.28 29.04 34.42Z" fill="#FFFFFF" fill-opacity="1.000000" fill-rule="nonzero"/>
	<path id="path" d="M28.71 34.69C28.58 34.87 28.57 35.03 28.57 36.93C28.57 38.79 28.58 39.01 28.71 39.33C29.24 40.61 30.85 41.37 32.6 41.15C34.08 40.97 35.2 40.1 35.43 38.97C35.48 38.77 35.51 37.79 35.51 36.78C35.51 35.15 35.49 34.91 35.37 34.73C35.1 34.28 34.27 34.19 33.83 34.56C33.64 34.72 33.61 34.79 33.56 35.28C33.54 35.59 33.51 36.47 33.51 37.25C33.5 38.09 33.47 38.77 33.42 38.92C33.37 39.06 33.22 39.24 33.06 39.37C32.33 39.93 31.14 39.74 30.69 38.99C30.54 38.74 30.54 38.64 30.54 36.85C30.54 34.76 30.51 34.65 30.08 34.43C29.78 34.29 29.31 34.28 29.04 34.42C28.93 34.47 28.78 34.59 28.71 34.69Z" stroke="#000000" stroke-opacity="0" stroke-width="0.133333"/>
	<path id="path" d="M3.15 34.46C1.7 34.75 0.65 35.56 0.14 36.75C0.02 37 0 37.24 0 37.85C0 38.52 0.02 38.67 0.17 38.98C0.68 39.99 1.57 40.71 2.71 41.03C3.43 41.23 4.63 41.22 5.35 41.02C6.44 40.7 7.08 40.22 7.08 39.73C7.08 39.5 7.04 39.43 6.79 39.24C6.54 39.03 6.47 39.01 6.16 39.01C5.86 39.01 5.75 39.04 5.48 39.21C4.97 39.55 4.52 39.68 3.97 39.68C3.34 39.68 2.9 39.52 2.45 39.12C2.04 38.76 1.89 38.4 1.89 37.84C1.89 37.23 2.1 36.8 2.59 36.42C3.16 35.97 3.9 35.81 4.64 35.98C4.91 36.04 5.03 36.1 5.69 36.5C5.95 36.67 6.05 36.7 6.29 36.67C6.92 36.61 7.34 36.13 7.13 35.72C6.89 35.26 6.15 34.78 5.33 34.55C4.76 34.39 3.71 34.34 3.15 34.46Z" fill="#FFFFFF" fill-opacity="1.000000" fill-rule="nonzero"/>
	<path id="path" d="M0.14 36.75C0.02 37 0 37.24 0 37.85C0 38.52 0.02 38.67 0.17 38.98C0.68 39.99 1.57 40.71 2.71 41.03C3.43 41.23 4.63 41.22 5.35 41.02C6.44 40.7 7.08 40.22 7.08 39.73C7.08 39.5 7.04 39.43 6.79 39.24C6.54 39.03 6.47 39.01 6.16 39.01C5.86 39.01 5.75 39.04 5.48 39.21C4.97 39.55 4.52 39.68 3.97 39.68C3.34 39.68 2.9 39.52 2.45 39.12C2.04 38.76 1.89 38.4 1.89 37.84C1.89 37.23 2.1 36.8 2.59 36.42C3.16 35.97 3.9 35.81 4.64 35.98C4.91 36.04 5.03 36.1 5.69 36.5C5.95 36.67 6.05 36.7 6.29 36.67C6.92 36.61 7.34 36.13 7.13 35.72C6.89 35.26 6.15 34.78 5.33 34.55C4.76 34.39 3.71 34.34 3.15 34.46C1.7 34.75 0.65 35.56 0.14 36.75Z" stroke="#000000" stroke-opacity="0" stroke-width="0.133333"/>
	<path id="path" d="M9.95 36.16C8.5 36.56 7.59 37.75 7.81 38.9C7.97 39.77 8.71 40.53 9.73 40.92C10.19 41.1 10.3 41.11 10.94 41.11C11.48 41.11 11.74 41.08 12.06 40.98C12.87 40.72 13.6 40.14 13.93 39.48C14.15 39.04 14.16 38.16 13.96 37.73C13.61 37 12.97 36.46 12.15 36.21C11.52 36.02 10.53 35.99 9.95 36.16ZM11.52 37.54C12.17 37.82 12.46 38.53 12.14 39.09C11.95 39.41 11.71 39.58 11.3 39.66C10.45 39.85 9.69 39.33 9.68 38.58C9.68 38.12 9.89 37.82 10.39 37.57C10.65 37.44 11.23 37.43 11.52 37.54Z" fill="#FFFFFF" fill-opacity="1.000000" fill-rule="nonzero"/>
	<path id="path" d="M7.81 38.9C7.97 39.77 8.71 40.53 9.73 40.92C10.19 41.1 10.3 41.11 10.94 41.11C11.48 41.11 11.74 41.08 12.06 40.98C12.87 40.72 13.6 40.14 13.93 39.48C14.15 39.04 14.16 38.16 13.96 37.73C13.61 37 12.97 36.46 12.15 36.21C11.52 36.02 10.53 35.99 9.95 36.16C8.5 36.56 7.59 37.75 7.81 38.9ZM12.14 39.09C11.95 39.41 11.71 39.58 11.3 39.66C10.45 39.85 9.69 39.33 9.68 38.58C9.68 38.12 9.89 37.82 10.39 37.57C10.65 37.44 11.23 37.43 11.52 37.54C12.17 37.82 12.46 38.53 12.14 39.09Z" stroke="#000000" stroke-opacity="0" stroke-width="0.133333"/>
	<path id="path" d="M23.92 36.15C23.38 36.29 23.08 36.44 22.7 36.76C22 37.34 21.74 37.92 21.79 38.77C21.83 39.39 22.06 39.81 22.64 40.31C23.63 41.16 25.1 41.37 26.42 40.85C26.98 40.63 27.22 40.39 27.22 40.07C27.22 39.79 27.11 39.68 26.71 39.53C26.31 39.39 26.07 39.39 25.75 39.56C25.06 39.94 24.15 39.76 23.78 39.18L23.63 38.95L23.8 38.95C26.3 38.94 27.56 38.92 27.67 38.87C27.79 38.82 27.8 38.76 27.77 38.33C27.72 37.44 27.08 36.65 26.1 36.26C25.48 36.02 24.58 35.97 23.92 36.15ZM25.4 37.4C25.61 37.51 25.93 37.84 25.93 37.95C25.93 37.98 25.44 38 24.82 38C24.04 38 23.71 37.98 23.71 37.93C23.71 37.79 24.02 37.47 24.25 37.38C24.58 37.25 25.1 37.26 25.4 37.4Z" fill="#FFFFFF" fill-opacity="1.000000" fill-rule="nonzero"/>
	<path id="path" d="M22.7 36.76C22 37.34 21.74 37.92 21.79 38.77C21.83 39.39 22.06 39.81 22.64 40.31C23.63 41.16 25.1 41.37 26.42 40.85C26.98 40.63 27.22 40.39 27.22 40.07C27.22 39.79 27.11 39.68 26.71 39.53C26.31 39.39 26.07 39.39 25.75 39.56C25.06 39.94 24.15 39.76 23.78 39.18L23.63 38.95L23.8 38.95C26.3 38.94 27.56 38.92 27.67 38.87C27.79 38.82 27.8 38.76 27.77 38.33C27.72 37.44 27.08 36.65 26.1 36.26C25.48 36.02 24.58 35.97 23.92 36.15C23.38 36.29 23.08 36.44 22.7 36.76ZM25.93 37.95C25.93 37.98 25.44 38 24.82 38C24.04 38 23.71 37.98 23.71 37.93C23.71 37.79 24.02 37.47 24.25 37.38C24.58 37.25 25.1 37.26 25.4 37.4C25.61 37.51 25.93 37.84 25.93 37.95Z" stroke="#000000" stroke-opacity="0" stroke-width="0.133333"/>
	<path id="path" d="M39.33 36.17C39.12 36.25 38.86 36.4 38.75 36.51C38.58 36.67 38.55 36.68 38.55 36.58C38.55 36.52 38.43 36.38 38.29 36.28C38.07 36.13 37.96 36.1 37.63 36.1C37.33 36.1 37.19 36.13 37.03 36.23C36.62 36.48 36.62 36.51 36.62 39.57C36.62 42.24 36.63 42.41 36.76 42.62C37.1 43.14 38.08 43.11 38.44 42.57C38.52 42.44 38.55 42.16 38.55 41.43L38.55 40.47L38.83 40.68C39.17 40.94 39.33 41.01 39.81 41.09C40.5 41.21 41.38 40.94 42.05 40.41C42.75 39.85 43.04 39.23 42.99 38.4C42.94 37.76 42.68 37.29 42.11 36.78C41.35 36.12 40.15 35.86 39.33 36.17ZM40.5 37.62C41.34 38.06 41.3 39.17 40.44 39.58C39.58 39.98 38.55 39.44 38.55 38.58C38.56 37.65 39.58 37.13 40.5 37.62Z" fill="#FFFFFF" fill-opacity="1.000000" fill-rule="nonzero"/>
	<path id="path" d="M38.75 36.51C38.58 36.67 38.55 36.68 38.55 36.58C38.55 36.52 38.43 36.38 38.29 36.28C38.07 36.13 37.96 36.1 37.63 36.1C37.33 36.1 37.19 36.13 37.03 36.23C36.62 36.48 36.62 36.51 36.62 39.57C36.62 42.24 36.63 42.41 36.76 42.62C37.1 43.14 38.08 43.11 38.44 42.57C38.52 42.44 38.55 42.16 38.55 41.43L38.55 40.47L38.83 40.68C39.17 40.94 39.33 41.01 39.81 41.09C40.5 41.21 41.38 40.94 42.05 40.41C42.75 39.85 43.04 39.23 42.99 38.4C42.94 37.76 42.68 37.29 42.11 36.78C41.35 36.12 40.15 35.86 39.33 36.17C39.12 36.25 38.86 36.4 38.75 36.51ZM40.44 39.58C39.58 39.98 38.55 39.44 38.55 38.58C38.56 37.65 39.58 37.13 40.5 37.62C41.34 38.06 41.3 39.17 40.44 39.58Z" stroke="#000000" stroke-opacity="0" stroke-width="0.133333"/>
</svg>
